<svg xmlns="http://www.w3.org/2000/svg" viewBox="0 0 760 270" font-family="Segoe UI, system-ui, sans-serif">
  <rect width="760" height="270" fill="#ffffff"/>
  <defs><marker id="a" viewBox="0 0 10 10" refX="9" refY="5" markerWidth="7" markerHeight="7" orient="auto"><path d="M0 0L10 5L0 10z" fill="#64748b"/></marker></defs>
  <g text-anchor="middle" font-size="12" font-weight="700">
    <g transform="translate(90 135)"><rect x="-70" y="-34" width="140" height="68" rx="12" fill="#dbeafe" stroke="#3b82f6" stroke-width="2"/><text y="-6" fill="#1e3a8a">🛒 Orders</text><text y="12" font-size="10" font-weight="400" fill="#1e40af">producer</text></g>
    <g transform="translate(260 135)"><rect x="-70" y="-26" width="140" height="52" rx="26" fill="#fef3c7" stroke="#f59e0b" stroke-width="2"/><text y="-2" fill="#78350f">📣 OrderPlaced</text><text y="14" font-size="10" font-weight="400" fill="#92400e">a fact, past tense</text></g>
    <g transform="translate(430 135)"><rect x="-60" y="-60" width="120" height="120" rx="16" fill="#f5f3ff" stroke="#8b5cf6" stroke-width="2"/><text y="-8" font-size="22">🗂️</text><text y="16" fill="#4c1d95">Event broker</text><text y="32" font-size="10" font-weight="400" fill="#5b21b6">Kafka / RabbitMQ</text></g>
    <g transform="translate(650 40)"><rect x="-80" y="-20" width="160" height="40" rx="10" fill="#dcfce7" stroke="#22c55e"/><text y="5" fill="#14532d">📦 Inventory: reserve</text></g>
    <g transform="translate(650 100)"><rect x="-80" y="-20" width="160" height="40" rx="10" fill="#dcfce7" stroke="#22c55e"/><text y="5" fill="#14532d">💳 Payments: charge</text></g>
    <g transform="translate(650 160)"><rect x="-80" y="-20" width="160" height="40" rx="10" fill="#dcfce7" stroke="#22c55e"/><text y="5" fill="#14532d">📧 Email: confirm</text></g>
    <g transform="translate(650 220)"><rect x="-80" y="-20" width="160" height="40" rx="10" fill="#ecfdf5" stroke="#10b981" stroke-dasharray="5 4"/><text y="5" fill="#065f46">🆕 Loyalty: points</text></g>
  </g>
  <g stroke="#64748b" stroke-width="2" marker-end="url(#a)" fill="none">
    <line x1="160" y1="135" x2="186" y2="135"/><line x1="330" y1="135" x2="366" y2="135"/>
    <path d="M490 110 C 530 70, 545 45, 566 42"/><path d="M490 125 C 530 110, 545 102, 566 100"/><path d="M490 145 C 530 158, 545 160, 566 160"/><path d="M490 160 C 530 200, 545 218, 566 220"/>
  </g>
  <text x="250" y="230" text-anchor="middle" font-size="12" fill="#475569">Orders doesn't know who listens.</text>
  <text x="250" y="248" text-anchor="middle" font-size="12" fill="#475569">New consumers plug in without changing it.</text>
</svg>
