<svg xmlns="http://www.w3.org/2000/svg" viewBox="0 0 760 290" font-family="Segoe UI, system-ui, sans-serif">
  <rect width="760" height="290" fill="#ffffff"/>
  <g transform="translate(60 20)">
    <polygon points="160,10 310,100 10,100" fill="#fdba74" stroke="#ea580c" stroke-width="2"/>
    <rect x="30" y="100" width="260" height="120" fill="#fff7ed" stroke="#ea580c" stroke-width="2"/>
    <rect x="60" y="130" width="50" height="40" fill="#bae6fd" stroke="#0284c7"/><rect x="210" y="130" width="50" height="40" fill="#bae6fd" stroke="#0284c7"/>
    <rect x="140" y="160" width="40" height="60" fill="#a16207"/>
    <rect x="0" y="220" width="320" height="30" fill="#78716c"/>
    <text x="160" y="240" text-anchor="middle" font-size="12" font-weight="700" fill="#fff">foundations</text>
    <text x="160" y="70" text-anchor="middle" font-size="12" font-weight="700" fill="#7c2d12">structure</text>
  </g>
  <g font-size="13">
    <g transform="translate(420 30)"><rect width="310" height="70" rx="12" fill="#fef2f2" stroke="#ef4444" stroke-width="2"/><text x="16" y="28" font-weight="800" fill="#991b1b">🏛️ Architecture</text><text x="16" y="50" fill="#7f1d1d">foundations, walls, plumbing: hard to move</text></g>
    <g transform="translate(420 110)"><rect width="310" height="70" rx="12" fill="#fefce8" stroke="#eab308" stroke-width="2"/><text x="16" y="28" font-weight="800" fill="#854d0e">🧩 Design</text><text x="16" y="50" fill="#713f12">room layout, furniture: some effort</text></g>
    <g transform="translate(420 190)"><rect width="310" height="70" rx="12" fill="#f0fdf4" stroke="#22c55e" stroke-width="2"/><text x="16" y="28" font-weight="800" fill="#166534">⌨️ Code</text><text x="16" y="50" fill="#14532d">paint, pictures, cushions: easy to change</text></g>
  </g>
</svg>
