<svg xmlns="http://www.w3.org/2000/svg" viewBox="0 0 640 360" font-family="Segoe UI, system-ui, sans-serif">
  <defs>
    <linearGradient id="bg" x1="0" y1="0" x2="1" y2="1"><stop offset="0" stop-color="#9a3412"/><stop offset="1" stop-color="#fb923c"/></linearGradient>
    <filter id="sh" x="-20%" y="-20%" width="140%" height="140%"><feDropShadow dx="0" dy="5" stdDeviation="6" flood-opacity=".22"/></filter>
  </defs>
  <rect width="640" height="360" fill="url(#bg)"/>
  <circle cx="560" cy="40" r="140" fill="#fff" opacity=".07"/>
  <circle cx="80" cy="340" r="110" fill="#fff" opacity=".06"/>
  <text x="36" y="262" font-size="40" font-weight="800" fill="#fff">Software Architecture</text>
  <text x="38" y="302" font-size="21" fill="#fff" opacity=".88">Clean · Hexagonal · Onion · DDD</text>
  <g filter="url(#sh)" transform="translate(470 110)">
    <polygon points="0,-88 76,-44 76,44 0,88 -76,44 -76,-44" fill="#fff"/>
    <polygon points="0,-60 52,-30 52,30 0,60 -52,30 -52,-30" fill="#fed7aa"/>
    <circle r="26" fill="#ea580c"/>
    <text y="6" text-anchor="middle" font-size="13" font-weight="800" fill="#fff">core</text>
    <g fill="#9a3412"><rect x="-86" y="-8" width="16" height="16" rx="3"/><rect x="70" y="-8" width="16" height="16" rx="3"/><rect x="-8" y="-98" width="16" height="16" rx="3"/><rect x="-8" y="82" width="16" height="16" rx="3"/></g>
  </g>
</svg>
