<svg xmlns="http://www.w3.org/2000/svg" viewBox="0 0 760 280" font-family="Segoe UI,system-ui,sans-serif"><defs><marker id="a" viewBox="0 0 10 10" refX="9" refY="5" markerWidth="7" markerHeight="7" orient="auto"><path d="M0 0 10 5 0 10z" fill="#64748b"/></marker></defs><rect width="760" height="280" fill="#fff"/><text x="35" y="42" font-size="22" font-weight="800" fill="#1e293b">E-commerce checkout</text><line x1="145" y1="163" x2="179" y2="163" stroke="#64748b" stroke-width="2" marker-end="url(#a)"/><line x1="295" y1="163" x2="329" y2="163" stroke="#64748b" stroke-width="2" marker-end="url(#a)"/><line x1="445" y1="163" x2="479" y2="163" stroke="#64748b" stroke-width="2" marker-end="url(#a)"/><g><rect x="35" y="130" width="110" height="66" rx="12" fill="#f5f3ff" stroke="#7c3aed" stroke-width="2"/><text x="90" y="159" text-anchor="middle" font-size="13" font-weight="700" fill="#1e293b">Cart</text><text x="90" y="180" text-anchor="middle" font-size="11" fill="#475569">intent</text></g><g><rect x="185" y="130" width="110" height="66" rx="12" fill="#eff6ff" stroke="#7c3aed" stroke-width="2"/><text x="240" y="159" text-anchor="middle" font-size="13" font-weight="700" fill="#1e293b">Inventory</text><text x="240" y="180" text-anchor="middle" font-size="11" fill="#475569">reserve</text></g><g><rect x="335" y="130" width="110" height="66" rx="12" fill="#ecfdf5" stroke="#7c3aed" stroke-width="2"/><text x="390" y="159" text-anchor="middle" font-size="13" font-weight="700" fill="#1e293b">Payment</text><text x="390" y="180" text-anchor="middle" font-size="11" fill="#475569">idempotent</text></g><g><rect x="485" y="130" width="110" height="66" rx="12" fill="#fff7ed" stroke="#7c3aed" stroke-width="2"/><text x="540" y="159" text-anchor="middle" font-size="13" font-weight="700" fill="#1e293b">Order</text><text x="540" y="180" text-anchor="middle" font-size="11" fill="#475569">durable</text></g><text x="380" y="242" text-anchor="middle" font-size="12" fill="#64748b">Separate the durable source of truth from scalable derived paths.</text></svg>