<svg xmlns="http://www.w3.org/2000/svg" viewBox="0 0 760 260" font-family="Segoe UI, system-ui, sans-serif">
  <defs><marker id="arr" viewBox="0 0 10 10" refX="9" refY="5" markerWidth="7" markerHeight="7" orient="auto-start-reverse"><path d="M0 0 L10 5 L0 10 z" fill="#64748b"/></marker></defs>
  <rect width="760" height="260" fill="#ffffff"/>
  <rect x="20" y="20" width="470" height="200" rx="14" fill="#eff6ff" fill-opacity="0.55" stroke="#3b82f6" stroke-width="1.6"/>
  <text x="32" y="38" font-size="12" font-weight="700" fill="#1e40af">Region  eu-west-1</text>
  <rect x="40" y="50" width="130" height="150" rx="14" fill="#f8fafc" fill-opacity="0.55" stroke="#94a3b8" stroke-width="1.6" stroke-dasharray="7 5"/>
  <text x="52" y="68" font-size="12" font-weight="700" fill="#334155">AZ a</text>
  <rect x="55" y="80" width="100" height="44" rx="12" fill="#ecfeff" stroke="#06b6d4" stroke-width="2"/>
  <text x="105.0" y="104" font-size="12" font-weight="800" fill="#155e75" text-anchor="middle">🏢 DC</text>
  <rect x="55" y="138" width="100" height="44" rx="12" fill="#ecfeff" stroke="#06b6d4" stroke-width="2"/>
  <text x="105.0" y="162" font-size="12" font-weight="800" fill="#155e75" text-anchor="middle">🏢 DC</text>
  <rect x="190" y="50" width="130" height="150" rx="14" fill="#f8fafc" fill-opacity="0.55" stroke="#94a3b8" stroke-width="1.6" stroke-dasharray="7 5"/>
  <text x="202" y="68" font-size="12" font-weight="700" fill="#334155">AZ b</text>
  <rect x="205" y="80" width="100" height="44" rx="12" fill="#ecfeff" stroke="#06b6d4" stroke-width="2"/>
  <text x="255.0" y="104" font-size="12" font-weight="800" fill="#155e75" text-anchor="middle">🏢 DC</text>
  <rect x="205" y="138" width="100" height="44" rx="12" fill="#ecfeff" stroke="#06b6d4" stroke-width="2"/>
  <text x="255.0" y="162" font-size="12" font-weight="800" fill="#155e75" text-anchor="middle">🏢 DC</text>
  <rect x="340" y="50" width="130" height="150" rx="14" fill="#f8fafc" fill-opacity="0.55" stroke="#94a3b8" stroke-width="1.6" stroke-dasharray="7 5"/>
  <text x="352" y="68" font-size="12" font-weight="700" fill="#334155">AZ c</text>
  <rect x="355" y="80" width="100" height="44" rx="12" fill="#ecfeff" stroke="#06b6d4" stroke-width="2"/>
  <text x="405.0" y="104" font-size="12" font-weight="800" fill="#155e75" text-anchor="middle">🏢 DC</text>
  <rect x="355" y="138" width="100" height="44" rx="12" fill="#ecfeff" stroke="#06b6d4" stroke-width="2"/>
  <text x="405.0" y="162" font-size="12" font-weight="800" fill="#155e75" text-anchor="middle">🏢 DC</text>
  <text x="255" y="240" font-size="11" font-weight="400" fill="#475569" text-anchor="middle">isolated power + network, low-latency links between AZs</text>
  <rect x="520" y="20" width="220" height="200" rx="14" fill="#f0fdf4" fill-opacity="0.55" stroke="#22c55e" stroke-width="1.6"/>
  <text x="532" y="38" font-size="12" font-weight="700" fill="#166534">Edge locations (600+)</text>
  <text x="630" y="72" font-size="13" font-weight="600" fill="#166534" text-anchor="middle">📍 Tokyo</text>
  <text x="630" y="106" font-size="13" font-weight="600" fill="#166534" text-anchor="middle">📍 São Paulo</text>
  <text x="630" y="140" font-size="13" font-weight="600" fill="#166534" text-anchor="middle">📍 Mumbai</text>
  <text x="630" y="174" font-size="13" font-weight="600" fill="#166534" text-anchor="middle">📍 New York</text>
  <text x="630" y="240" font-size="11" font-weight="400" fill="#475569" text-anchor="middle">CloudFront + Route 53, near users</text>
</svg>
